<svg width="1811" height="680" viewBox="0 0 1811 680" fill="none" xmlns="http://www.w3.org/2000/svg">
<rect y="309" width="37" height="60" rx="7" fill="white"/>
<path d="M41.8734 115.437C36.643 127.653 33.5326 140.621 31.6115 153.77L12 288V310.5C12 310.5 17.5093 367.904 25 404C25.7227 407.483 26.4093 410.827 27.0724 414.057C33.4396 445.074 37.6459 465.564 51 497C63.6536 526.787 94.9892 544 127.352 544H640.25C645.773 544 650.25 539.523 650.25 534V513C650.25 496.431 663.681 483 680.25 483H858H1034.75C1051.87 483 1065.75 496.879 1065.75 514V534C1065.75 539.523 1070.23 544 1075.75 544H1608.65C1641.01 544 1672.35 526.787 1685 497C1698.35 465.564 1702.56 445.073 1708.93 414.056C1709.59 410.826 1710.28 407.482 1711 404C1718.49 367.904 1724 310.5 1724 310.5V288L1704.39 153.77C1702.47 140.621 1699.36 127.653 1694.13 115.437C1686.39 97.3607 1673.24 70.3362 1658 54.3201C1617.83 12.0969 1572.64 0 1519 0H217C163.362 0 118.173 12.0969 78 54.3201C62.7618 70.3362 49.6132 97.3607 41.8734 115.437Z" fill="white"/>
<path d="M114.198 427.188C111.246 427.188 108.937 424.644 109.221 421.707L138.138 122.332C138.385 119.768 140.539 117.812 143.115 117.812H238.968C241.546 117.812 243.702 119.773 243.945 122.34L272.352 421.715C272.63 424.65 270.322 427.188 267.374 427.188H218.915C216.324 427.188 214.162 425.207 213.934 422.626L209.941 377.266H172.676L169.166 422.574C168.964 425.178 166.793 427.188 164.181 427.188H114.198ZM177.07 327.871H205.195L191.66 170.547H188.848L177.07 327.871Z" fill="black"/>
<path d="M295.843 427.188C293.082 427.188 290.843 424.949 290.843 422.187V122.813C290.843 120.051 293.082 117.812 295.843 117.812H345.609C348.37 117.812 350.609 120.051 350.609 122.813V422.187C350.609 424.949 348.37 427.188 345.609 427.188H295.843Z" fill="black"/>
<path d="M382.018 427.188C379.257 427.188 377.018 424.949 377.018 422.187V122.813C377.018 120.051 379.257 117.812 382.018 117.812H471.94C487.76 117.812 499.713 121.445 507.799 128.711C515.885 135.859 521.276 145.938 523.971 158.945C526.784 171.836 528.19 187.012 528.19 204.473C528.19 221.348 526.022 234.824 521.686 244.902C517.467 254.98 509.44 261.953 497.604 265.82C507.331 267.812 514.127 272.676 517.995 280.41C521.979 288.027 523.971 297.93 523.971 310.117V422.188C523.971 424.949 521.733 427.188 518.971 427.188H467.975C465.214 427.188 462.975 424.949 462.975 422.188V306.074C462.975 297.051 461.1 291.484 457.35 289.375C453.717 287.148 447.799 286.035 439.596 286.035V422.187C439.596 424.949 437.358 427.188 434.596 427.188H382.018ZM439.948 232.422H454.889C463.444 232.422 467.721 223.105 467.721 204.473C467.721 192.402 466.784 184.492 464.909 180.742C463.034 176.992 459.518 175.117 454.362 175.117H439.948V232.422Z" fill="black"/>
<path d="M623.857 430C595.615 430 575.224 422.969 562.685 408.906C550.263 394.844 544.052 372.461 544.052 341.758V316.523C544.052 313.762 546.291 311.523 549.052 311.523H600.224C602.986 311.523 605.224 313.762 605.224 316.523V350.195C605.224 357.344 606.279 362.969 608.388 367.07C610.615 371.055 614.423 373.047 619.814 373.047C625.439 373.047 629.306 371.406 631.416 368.125C633.642 364.844 634.755 359.453 634.755 351.953C634.755 342.461 633.818 334.551 631.943 328.223C630.068 321.777 626.787 315.684 622.099 309.941C617.529 304.082 611.142 297.285 602.939 289.551L575.166 263.184C554.423 243.613 544.052 221.23 544.052 196.035C544.052 169.668 550.146 149.57 562.334 135.742C574.638 121.914 592.392 115 615.595 115C643.955 115 664.052 122.559 675.888 137.676C687.185 151.963 693.144 173.264 693.764 201.578C693.824 204.339 691.579 206.582 688.818 206.582H635.888C633.127 206.582 630.888 204.343 630.888 201.582V185.312C630.888 181.094 629.658 177.812 627.197 175.469C624.853 173.125 621.63 171.953 617.529 171.953C612.607 171.953 608.974 173.359 606.63 176.172C604.404 178.867 603.291 182.383 603.291 186.719C603.291 191.055 604.462 195.742 606.806 200.781C609.15 205.82 613.779 211.621 620.693 218.184L656.377 252.461C663.525 259.258 670.087 266.465 676.064 274.082C682.041 281.582 686.845 290.371 690.478 300.449C694.111 310.41 695.927 322.598 695.927 337.012C695.927 366.074 690.537 388.867 679.755 405.391C669.091 421.797 650.459 430 623.857 430Z" fill="black"/>
<path d="M750.013 427.188C747.251 427.188 745.013 424.949 745.013 422.188V177.227H713.274C710.513 177.227 708.274 174.988 708.274 172.227V122.812C708.274 120.051 710.513 117.812 713.274 117.812H838.626C841.387 117.812 843.626 120.051 843.626 122.812V172.227C843.626 174.988 841.387 177.227 838.626 177.227H806.888V422.187C806.888 424.949 804.649 427.188 801.888 427.188H750.013Z" fill="black"/>
<path d="M867.652 427.188C864.891 427.188 862.652 424.949 862.652 422.187V122.813C862.652 120.051 864.891 117.812 867.652 117.812H957.574C973.395 117.812 985.348 121.445 993.434 128.711C1001.52 135.859 1006.91 145.938 1009.61 158.945C1012.42 171.836 1013.82 187.012 1013.82 204.473C1013.82 221.348 1011.66 234.824 1007.32 244.902C1003.1 254.98 995.074 261.953 983.238 265.82C992.965 267.812 999.762 272.676 1003.63 280.41C1007.61 288.027 1009.61 297.93 1009.61 310.117V422.188C1009.61 424.949 1007.37 427.188 1004.61 427.188H953.609C950.848 427.188 948.609 424.949 948.609 422.188V306.074C948.609 297.051 946.734 291.484 942.984 289.375C939.352 287.148 933.434 286.035 925.231 286.035V422.187C925.231 424.949 922.992 427.188 920.231 427.188H867.652ZM925.582 232.422H940.523C949.078 232.422 953.356 223.105 953.356 204.473C953.356 192.402 952.418 184.492 950.543 180.742C948.668 176.992 945.152 175.117 939.996 175.117H925.582V232.422Z" fill="black"/>
<path d="M1041.01 427.188C1038.25 427.188 1036.01 424.949 1036.01 422.187V122.813C1036.01 120.051 1038.25 117.812 1041.01 117.812H1154.76C1157.53 117.812 1159.76 120.051 1159.76 122.813V172.578C1159.76 175.34 1157.53 177.578 1154.76 177.578H1103.94C1101.18 177.578 1098.94 179.817 1098.94 182.578V232.871C1098.94 235.633 1101.18 237.871 1103.94 237.871H1152.3C1155.07 237.871 1157.3 240.11 1157.3 242.871V291.055C1157.3 293.816 1155.07 296.055 1152.3 296.055H1103.94C1101.18 296.055 1098.94 298.293 1098.94 301.055V361.895C1098.94 364.656 1101.18 366.895 1103.94 366.895H1158.81C1161.57 366.895 1163.81 369.133 1163.81 371.895V422.187C1163.81 424.949 1161.57 427.188 1158.81 427.188H1041.01Z" fill="black"/>
<path d="M1183.24 427.188C1180.29 427.188 1177.98 424.644 1178.27 421.707L1207.18 122.332C1207.43 119.768 1209.58 117.812 1212.16 117.812H1308.01C1310.59 117.812 1312.75 119.773 1312.99 122.34L1341.4 421.715C1341.68 424.65 1339.37 427.188 1336.42 427.188H1287.96C1285.37 427.188 1283.21 425.207 1282.98 422.626L1278.99 377.266H1241.72L1238.21 422.574C1238.01 425.178 1235.84 427.188 1233.23 427.188H1183.24ZM1246.12 327.871H1274.24L1260.71 170.547H1257.89L1246.12 327.871Z" fill="black"/>
<path d="M1367.7 427.188C1364.94 427.188 1362.7 424.949 1362.7 422.187V122.813C1362.7 120.051 1364.94 117.812 1367.7 117.812H1452.56C1455.06 117.812 1457.17 119.655 1457.51 122.129L1482.94 306.426L1508.18 122.134C1508.52 119.658 1510.64 117.812 1513.14 117.812H1598.87C1601.63 117.812 1603.87 120.051 1603.87 122.813V422.187C1603.87 424.949 1601.63 427.188 1598.87 427.188H1552.27C1549.51 427.188 1547.27 424.949 1547.27 422.188V204.297L1512.43 422.974C1512.05 425.401 1509.95 427.188 1507.5 427.188H1460.44C1458 427.188 1455.92 425.426 1455.51 423.02L1418.6 204.297V422.188C1418.6 424.949 1416.36 427.188 1413.6 427.188H1367.7Z" fill="black"/>
<path d="M703 680C700.239 680 698 677.761 698 675V534C698 531.239 700.239 529 703 529H750.19C764.194 529 774.37 531.688 780.716 537.065C787.134 542.384 790.344 551.192 790.344 563.49V570.096C790.344 577.188 788.703 582.937 785.42 587.341C782.211 591.745 777.287 594.634 770.65 596.006C779.33 597.722 785.129 601.755 788.046 608.103C791.037 614.395 792.532 622.088 792.532 631.182C792.532 640.963 791.365 649.514 789.031 656.835C786.697 664.156 782.466 669.848 776.339 673.909C770.212 677.97 761.496 680 750.19 680H703ZM735.638 585.882H743.515C747.09 585.882 749.387 584.796 750.408 582.622C751.43 580.449 751.94 577.846 751.94 574.815V559.629C751.94 554.767 749.205 552.336 743.734 552.336H735.638V585.882ZM739.467 653.403C749.46 653.403 754.457 649.686 754.457 642.25V623.375C754.457 619.085 753.618 615.711 751.94 613.251C750.335 610.734 747.272 609.476 742.75 609.476H735.638V653.232C737.242 653.346 738.519 653.403 739.467 653.403Z" fill="white"/>
<path d="M814.589 680C811.585 680 809.259 677.37 809.626 674.389L826.995 533.389C827.303 530.883 829.432 529 831.957 529H888.423C890.952 529 893.083 530.889 893.387 533.399L910.448 674.399C910.809 677.377 908.484 680 905.485 680H879.162C876.616 680 874.477 678.087 874.193 675.558L871.957 655.634H848.761L846.354 680H814.589ZM851.496 631.526H869.002L860.578 554.739H858.827L851.496 631.526Z" fill="white"/>
<path d="M936.906 680C934.144 680 931.906 677.761 931.906 675V534C931.906 531.239 934.144 529 936.906 529H990.988C1000.84 529 1008.28 530.773 1013.31 534.319C1018.34 537.808 1021.7 542.727 1023.37 549.076C1025.12 555.368 1026 562.775 1026 571.297C1026 579.534 1024.65 586.111 1021.95 591.03C1019.33 595.949 1014.33 599.352 1006.96 601.24C1013.02 602.212 1017.25 604.586 1019.65 608.361C1022.13 612.079 1023.37 616.912 1023.37 622.86V675C1023.37 677.761 1021.14 680 1018.37 680H990.408C987.647 680 985.408 677.761 985.408 675V620.887C985.408 616.483 984.241 613.766 981.907 612.736C979.646 611.65 975.962 611.106 970.856 611.106V675C970.856 677.761 968.618 680 965.856 680H936.906ZM971.075 584.939H980.375C985.7 584.939 988.362 580.391 988.362 571.297C988.362 565.406 987.779 561.545 986.612 559.715C985.445 557.884 983.256 556.969 980.047 556.969H971.075V584.939Z" fill="white"/>
<rect x="1638" y="480" width="173" height="35" rx="7" fill="white"/>
<rect x="1587" y="284" width="137" height="13" fill="black"/>
<rect x="1299" y="284" width="118" height="13" fill="black"/>
<rect x="12" y="284" width="158" height="13" fill="black"/>
<rect x="973" y="284" width="270" height="13" fill="black"/>
<rect x="482" y="284" width="419" height="13" fill="black"/>
<rect x="207" y="284" width="210" height="13" fill="black"/>
</svg>
