<svg width="1941" height="772" viewBox="0 0 1941 772" fill="none" xmlns="http://www.w3.org/2000/svg">
<rect x="65" y="355" width="37" height="60" rx="7" fill="white"/>
<path fill-rule="evenodd" clip-rule="evenodd" d="M106.873 161.437C101.643 173.653 98.5326 186.621 96.6115 199.77L77.5844 330H187.518L203.134 168.332C203.381 165.768 205.535 163.812 208.111 163.812H303.964C306.542 163.812 308.698 165.773 308.941 168.34L324.281 330H355.839V168.812C355.839 166.051 358.078 163.812 360.839 163.812H410.605C413.366 163.812 415.605 166.051 415.605 168.812V330H442.014V168.812C442.014 166.051 444.253 163.812 447.014 163.812H536.936C552.756 163.812 564.709 167.445 572.795 174.711C580.881 181.859 586.272 191.938 588.967 204.945C591.78 217.836 593.186 233.012 593.186 250.473C593.186 267.348 591.018 280.824 586.682 290.902C582.463 300.98 574.436 307.953 562.6 311.82C572.327 313.812 579.123 318.676 582.991 326.41C583.59 327.555 584.143 328.752 584.652 330H662.088L640.162 309.184C619.419 289.613 609.048 267.23 609.048 242.035C609.048 215.668 615.142 195.57 627.33 181.742C639.634 167.914 657.388 161 680.591 161C708.951 161 729.048 168.559 740.884 183.676C752.181 197.963 758.14 219.264 758.76 247.578C758.82 250.339 756.575 252.582 753.814 252.582H700.884C698.123 252.582 695.884 250.343 695.884 247.582V231.312C695.884 227.094 694.654 223.812 692.193 221.469C689.849 219.125 686.627 217.953 682.525 217.953C677.603 217.953 673.97 219.359 671.627 222.172C669.4 224.867 668.287 228.383 668.287 232.719C668.287 237.055 669.459 241.742 671.802 246.781C674.146 251.82 678.775 257.621 685.689 264.184L721.373 298.461C728.521 305.258 735.084 312.465 741.06 320.082C743.521 323.17 745.782 326.476 747.845 330H810.009V223.227H778.27C775.509 223.227 773.27 220.988 773.27 218.227V168.812C773.27 166.051 775.509 163.812 778.27 163.812H903.622C906.383 163.812 908.622 166.051 908.622 168.812V218.227C908.622 220.988 906.383 223.227 903.622 223.227H871.884V330H927.648V168.812C927.648 166.051 929.887 163.812 932.648 163.812H1022.57C1038.39 163.812 1050.34 167.445 1058.43 174.711C1066.52 181.859 1071.91 191.938 1074.6 204.945C1077.41 217.836 1078.82 233.012 1078.82 250.473C1078.82 267.348 1076.65 280.824 1072.32 290.902C1068.1 300.98 1060.07 307.953 1048.23 311.82C1057.96 313.812 1064.76 318.676 1068.63 326.41C1069.22 327.555 1069.78 328.752 1070.29 330H1101.01V168.812C1101.01 166.051 1103.25 163.812 1106.01 163.812H1219.76C1222.52 163.812 1224.76 166.051 1224.76 168.812V218.578C1224.76 221.34 1222.52 223.578 1219.76 223.578H1168.94C1166.18 223.578 1163.94 225.817 1163.94 228.578V278.871C1163.94 281.633 1166.18 283.871 1168.94 283.871H1217.3C1220.06 283.871 1222.3 286.11 1222.3 288.871V330H1256.56L1272.18 168.332C1272.43 165.768 1274.58 163.812 1277.16 163.812H1373.01C1375.59 163.812 1377.74 165.773 1377.99 168.34L1393.33 330H1427.7V168.812C1427.7 166.051 1429.94 163.812 1432.7 163.812H1517.56C1520.06 163.812 1522.17 165.655 1522.51 168.129L1547.93 352.426L1573.18 168.134C1573.52 165.658 1575.63 163.812 1578.13 163.812H1663.87C1666.63 163.812 1668.87 166.051 1668.87 168.812V330H1788.42L1769.39 199.77C1767.47 186.621 1764.36 173.653 1759.13 161.437C1751.39 143.361 1738.24 116.336 1723 100.32C1682.83 58.0969 1637.64 46 1584 46H282C228.362 46 183.173 58.0969 143 100.32C127.762 116.336 114.613 143.361 106.873 161.437ZM1668.87 343V468.188C1668.87 470.949 1666.63 473.188 1663.87 473.188H1617.27C1614.51 473.188 1612.27 470.949 1612.27 468.188V250.297L1577.43 468.974C1577.04 471.401 1574.95 473.188 1572.49 473.188H1525.44C1523 473.188 1520.92 471.426 1520.51 469.02L1483.6 250.297V468.188C1483.6 470.949 1481.36 473.188 1478.6 473.188H1432.7C1429.94 473.188 1427.7 470.949 1427.7 468.188V343H1394.56L1406.39 467.715C1406.67 470.65 1404.36 473.188 1401.42 473.188H1352.96C1350.36 473.188 1348.2 471.207 1347.98 468.626L1343.98 423.266H1306.72L1303.21 468.574C1303.01 471.178 1300.83 473.188 1298.22 473.188H1248.24C1245.29 473.188 1242.98 470.645 1243.26 467.707L1255.31 343H1166.01C1164.76 343.908 1163.94 345.386 1163.94 347.055V407.895C1163.94 410.656 1166.18 412.895 1168.94 412.895H1223.8C1226.57 412.895 1228.8 415.133 1228.8 417.895V468.188C1228.8 470.949 1226.57 473.188 1223.8 473.188H1106.01C1103.25 473.188 1101.01 470.949 1101.01 468.188V343H1073.71C1074.3 347.03 1074.6 351.403 1074.6 356.117V468.188C1074.6 470.949 1072.36 473.188 1069.6 473.188H1018.61C1015.84 473.188 1013.61 470.949 1013.61 468.188V352.074C1013.61 343.051 1011.73 337.484 1007.98 335.375C1004.35 333.148 998.43 332.035 990.227 332.035V468.188C990.227 470.949 987.988 473.188 985.227 473.188H932.648C929.887 473.188 927.648 470.949 927.648 468.188V343H871.884V468.188C871.884 470.949 869.645 473.188 866.884 473.188H815.009C812.247 473.188 810.009 470.949 810.009 468.188V343H754.165C754.617 344.132 755.054 345.282 755.474 346.449C759.107 356.41 760.923 368.598 760.923 383.012C760.923 412.074 755.533 434.867 744.752 451.391C734.087 467.797 715.455 476 688.853 476C660.611 476 640.22 468.969 627.681 454.906C615.259 440.844 609.048 418.461 609.048 387.758V362.523C609.048 359.762 611.287 357.523 614.048 357.523H665.22C667.982 357.523 670.22 359.762 670.22 362.523V396.195C670.22 403.344 671.275 408.969 673.384 413.07C675.611 417.055 679.419 419.047 684.81 419.047C690.435 419.047 694.302 417.406 696.412 414.125C698.638 410.844 699.752 405.453 699.752 397.953C699.752 388.461 698.814 380.551 696.939 374.223C695.064 367.777 691.783 361.684 687.095 355.941C684.054 352.043 680.209 347.729 675.56 343H588.073C588.669 347.03 588.967 351.403 588.967 356.117V468.188C588.967 470.949 586.729 473.188 583.967 473.188H532.971C530.21 473.188 527.971 470.949 527.971 468.188V352.074C527.971 343.051 526.096 337.484 522.346 335.375C518.713 333.148 512.795 332.035 504.592 332.035V468.188C504.592 470.949 502.354 473.188 499.592 473.188H447.014C444.253 473.188 442.014 470.949 442.014 468.188V343H415.605V468.188C415.605 470.949 413.366 473.188 410.605 473.188H360.839C358.078 473.188 355.839 470.949 355.839 468.188V343H325.514L337.348 467.715C337.626 470.65 335.318 473.188 332.37 473.188H283.911C281.32 473.188 279.158 471.207 278.93 468.626L274.938 423.266H237.672L234.162 468.574C233.96 471.178 231.789 473.188 229.177 473.188H179.194C176.242 473.188 173.933 470.645 174.217 467.707L186.262 343H77V356.5C77 356.5 82.5093 413.904 90 450C90.7212 453.475 91.4063 456.813 92.0681 460.036L92.071 460.051L92.0724 460.057C98.4396 491.074 102.646 511.564 116 543C128.654 572.787 159.989 590 192.352 590H705.25C710.773 590 715.25 585.523 715.25 580V559C715.25 542.431 728.681 529 745.25 529H1099.75C1116.87 529 1130.75 542.879 1130.75 560V580C1130.75 585.523 1135.23 590 1140.75 590H1673.65C1706.01 590 1737.35 572.787 1750 543C1763.35 511.566 1767.56 491.075 1773.93 460.061L1773.93 460.058L1773.93 460.056C1774.59 456.826 1775.28 453.482 1776 450C1783.49 413.904 1789 356.5 1789 356.5V343H1668.87ZM242.066 373.871H270.191L256.656 216.547H253.844L242.066 373.871ZM519.885 278.422H504.944V221.117H519.358C524.514 221.117 528.03 222.992 529.905 226.742C531.78 230.492 532.717 238.402 532.717 250.473C532.717 269.105 528.44 278.422 519.885 278.422ZM990.578 278.422H1005.52C1014.07 278.422 1018.35 269.105 1018.35 250.473C1018.35 238.402 1017.41 230.492 1015.54 226.742C1013.66 222.992 1010.15 221.117 1004.99 221.117H990.578V278.422ZM1311.11 373.871H1339.24L1325.7 216.547H1322.89L1311.11 373.871Z" fill="white"/>
<path d="M768 726C765.239 726 763 723.761 763 721V580C763 577.239 765.239 575 768 575H815.19C829.194 575 839.37 577.688 845.716 583.065C852.134 588.384 855.344 597.192 855.344 609.49V616.096C855.344 623.188 853.703 628.937 850.42 633.341C847.211 637.745 842.287 640.634 835.65 642.006C844.33 643.722 850.129 647.755 853.046 654.103C856.037 660.395 857.532 668.088 857.532 677.182C857.532 686.963 856.365 695.514 854.031 702.835C851.697 710.156 847.466 715.848 841.339 719.909C835.212 723.97 826.496 726 815.19 726H768ZM800.638 631.882H808.515C812.09 631.882 814.387 630.796 815.408 628.622C816.43 626.449 816.94 623.846 816.94 620.815V605.629C816.94 600.767 814.205 598.336 808.734 598.336H800.638V631.882ZM804.467 699.403C814.46 699.403 819.457 695.686 819.457 688.25V669.375C819.457 665.085 818.618 661.711 816.94 659.251C815.335 656.734 812.272 655.476 807.75 655.476H800.638V699.232C802.242 699.346 803.519 699.403 804.467 699.403Z" fill="white"/>
<path d="M879.589 726C876.585 726 874.259 723.37 874.626 720.389L891.995 579.389C892.303 576.883 894.432 575 896.957 575H953.423C955.952 575 958.083 576.889 958.387 579.399L975.448 720.399C975.809 723.377 973.484 726 970.485 726H944.162C941.616 726 939.477 724.087 939.193 721.558L936.957 701.634H913.761L911.354 726H879.589ZM916.496 677.526H934.002L925.578 600.739H923.827L916.496 677.526Z" fill="white"/>
<path d="M1001.91 726C999.144 726 996.906 723.761 996.906 721V580C996.906 577.239 999.144 575 1001.91 575H1055.99C1065.84 575 1073.28 576.773 1078.31 580.319C1083.34 583.808 1086.7 588.727 1088.37 595.076C1090.12 601.368 1091 608.775 1091 617.297C1091 625.534 1089.65 632.111 1086.95 637.03C1084.33 641.949 1079.33 645.352 1071.96 647.24C1078.02 648.212 1082.25 650.586 1084.65 654.361C1087.13 658.079 1088.37 662.912 1088.37 668.86V721C1088.37 723.761 1086.14 726 1083.37 726H1055.41C1052.65 726 1050.41 723.761 1050.41 721V666.887C1050.41 662.483 1049.24 659.766 1046.91 658.736C1044.65 657.65 1040.96 657.106 1035.86 657.106V721C1035.86 723.761 1033.62 726 1030.86 726H1001.91ZM1036.08 630.939H1045.38C1050.7 630.939 1053.36 626.391 1053.36 617.297C1053.36 611.406 1052.78 607.545 1051.61 605.715C1050.44 603.884 1048.26 602.969 1045.05 602.969H1036.08V630.939Z" fill="white"/>
<rect x="1703" y="526" width="173" height="35" rx="7" fill="white"/>
</svg>
