<svg width="172" height="47" viewBox="0 0 172 47" fill="none" xmlns="http://www.w3.org/2000/svg">
<path d="M170.295 37.8519H154.624C154.097 37.8519 153.669 38.2796 153.669 38.8073C153.669 39.3349 154.097 39.7626 154.624 39.7626H170.295C170.822 39.7626 171.25 39.3349 171.25 38.8073C171.25 38.2796 170.822 37.8519 170.295 37.8519Z" fill="white"/>
<path d="M83.0957 33.9175C79.4826 33.9175 76.5536 36.8466 76.5536 40.4596C76.5536 44.0727 79.4826 47 83.0957 47C86.7088 47 89.6378 44.071 89.6378 40.4596C89.6361 36.8466 86.707 33.9175 83.0957 33.9175ZM83.0957 44.6085C80.8042 44.6085 78.9451 42.7512 78.9451 40.4596C78.9451 38.1664 80.8024 36.309 83.0957 36.309C85.3872 36.309 87.2463 38.1664 87.2463 40.4596C87.2446 42.7512 85.3872 44.6085 83.0957 44.6085Z" fill="white"/>
<path d="M62.6321 33.9175C59.019 33.9175 56.09 36.8466 56.09 40.4596C56.09 44.0727 59.019 47 62.6321 47C66.2451 47 69.1742 44.071 69.1742 40.4596C69.1725 36.8466 66.2434 33.9175 62.6321 33.9175ZM62.6321 44.6085C60.3405 44.6085 58.4814 42.7512 58.4814 40.4596C58.4814 38.1664 60.3388 36.309 62.6321 36.309C64.9236 36.309 66.7827 38.1664 66.7827 40.4596C66.781 42.7512 64.9236 44.6085 62.6321 44.6085Z" fill="white"/>
<path fill-rule="evenodd" clip-rule="evenodd" d="M156.036 21.4923H157.893C157.921 22.004 157.948 22.4796 157.981 22.912L153.896 41.3857H87.9475L87.1705 38.9029C87.1705 37.3195 85.8869 36.0359 84.3035 36.0359H78.2794L76.6768 39.4479H69.0338L67.1847 36.0359H60.0527C58.4693 36.0359 57.1857 37.3195 57.1857 38.9029V41.3857H19.7266C19.7266 41.3857 16.0257 28.7581 16.0257 23.0568C16.0257 23.0568 16.0257 22.4709 16.105 21.4923H22.6746C23.1502 21.4923 23.5344 21.1081 23.5344 20.6325L23.8204 10.9908C23.8204 10.5153 23.4362 10.1311 22.9606 10.1311H19.1563C21.8183 4.86911 26.7408 0 35.8519 0H123.859C128.8 0 132.918 0.000555427 136.485 0.00103659C139.211 0.00140427 141.615 0.00172859 143.82 0.00172859C148.623 0.00172859 151.742 1.89106 153.786 4.6412H152.579C152.146 4.6412 151.905 4.8817 151.809 5.29054L150.1 12.2889C150.052 12.5294 149.859 12.5294 149.811 12.2889L148.102 5.29054C148.005 4.8817 147.765 4.6412 147.331 4.6412H142.348C141.867 4.6412 141.626 4.8817 141.626 5.36269V20.7544C141.626 21.2113 141.867 21.4758 142.348 21.4758H145.044C145.526 21.4758 145.767 21.2113 145.767 20.7544V11.2789C145.767 11.1105 145.983 11.0865 146.031 11.2548L148.366 20.8506C148.463 21.2594 148.728 21.4758 149.161 21.4758H150.75C151.183 21.4758 151.448 21.2594 151.544 20.8506L153.879 11.2548C153.927 11.0865 154.144 11.1105 154.144 11.2789V20.7544C154.144 21.2113 154.409 21.4758 154.866 21.4758H156.036V21.4923ZM38.1942 21.4758C38.6756 21.4758 38.9164 21.1873 38.9164 20.6582V10.4612C38.9164 7.43094 38.4349 4.20831 33.0184 4.20831C27.6019 4.20831 27.1204 7.43094 27.1204 10.4612V20.6582C27.1204 21.1873 27.3852 21.4758 27.8426 21.4758H30.5388C31.0203 21.4758 31.261 21.2354 31.261 20.7544V18.6621C31.261 18.1811 31.5258 17.9406 31.9832 17.9406H34.0536C34.535 17.9406 34.7757 18.1811 34.7757 18.6621V20.7544C34.7757 21.2354 35.0406 21.4758 35.498 21.4758H38.1942ZM33.0184 8.72962C34.6072 8.72962 34.7757 9.3068 34.7757 10.4612V13.0585C34.7757 13.5395 34.535 13.78 34.0536 13.8041H31.9832C31.5258 13.8041 31.261 13.5395 31.261 13.0826V10.4612C31.261 9.3068 31.4296 8.72962 33.0184 8.72962ZM46.6217 5.36269C46.6217 4.8817 46.381 4.6412 45.8995 4.6412H43.2515C42.7941 4.6412 42.5293 4.8817 42.5293 5.36269V20.7544C42.5293 21.2113 42.7941 21.4758 43.2515 21.4758H45.8995C46.381 21.4758 46.6217 21.2113 46.6217 20.7544V5.36269ZM60.4767 15.4394L63.0285 20.1772C63.3655 20.8025 62.9803 21.4758 62.234 21.4758H59.4897C59.249 21.4758 59.0323 21.3556 58.936 21.1392L56.4324 16.3052C56.3842 16.2331 56.312 16.185 56.2398 16.185H55.2768C54.8435 16.185 54.5306 16.4976 54.5306 16.9305V20.7303C54.5306 21.1632 54.2176 21.4758 53.7843 21.4758H51.0881C50.6548 21.4758 50.3418 21.1632 50.3418 20.7303V5.38674C50.3418 4.95385 50.6548 4.6412 51.0881 4.6412H56.3601C60.6452 4.6412 62.3785 6.46897 62.3785 10.4131C62.3785 12.6497 61.8248 14.2129 60.5489 15.1268C60.4526 15.1989 60.4285 15.3192 60.4767 15.4394ZM56.5046 8.77772H55.2768C54.8435 8.77772 54.5306 9.09036 54.5306 9.52325V11.3029C54.5306 11.7358 54.8435 12.0484 55.2768 12.0484H56.5046C57.6601 12.0484 58.2379 11.9042 58.2379 10.4131C58.2379 8.92201 57.6601 8.77772 56.5046 8.77772ZM73.9849 10.6055L76.7292 10.0042C77.1625 9.90804 77.3792 9.6435 77.3551 9.21061C77.2107 7.47904 76.0552 4.25641 71.096 4.25641C65.7036 4.25641 65.2703 8.51317 65.2944 9.23466C65.2944 12.7323 68.1917 13.8356 70.4378 14.6909C71.7438 15.1882 72.8297 15.6017 72.9978 16.3533C73.1423 17.0026 72.2756 17.7001 71.096 17.7001C69.9646 17.7001 69.0739 17.0267 68.9776 15.8723C68.9295 15.3673 68.6646 15.1508 68.1832 15.247L65.4629 15.8483C65.0296 15.9445 64.8129 16.209 64.837 16.6419C64.9573 18.5178 66.0406 21.8366 71.096 21.8366C76.8014 21.8366 77.6199 17.5798 77.6199 16.8583C77.6199 13.3147 74.4978 12.061 72.1653 11.1244C70.8568 10.599 69.7968 10.1733 69.6757 9.4992C69.5794 8.94606 70.1572 8.39292 71.096 8.39292C72.2275 8.39292 73.0219 9.01821 73.1904 10.0042C73.2627 10.4852 73.5034 10.7017 73.9849 10.6055ZM84.3003 9.4992C84.3003 9.01821 84.0596 8.77772 83.5781 8.77772H80.2078C79.7504 8.77772 79.4856 8.51317 79.4856 8.05623V5.36269C79.4856 4.8817 79.7504 4.6412 80.2078 4.6412H92.5334C93.0148 4.6412 93.2556 4.8817 93.2556 5.36269V8.05623C93.2556 8.51317 93.0148 8.77772 92.5334 8.77772H89.1631C88.7057 8.77772 88.4409 9.01821 88.4409 9.4992V20.7544C88.4409 21.2113 88.2002 21.4758 87.7187 21.4758H85.0225C84.5651 21.4758 84.3003 21.2113 84.3003 20.7544V9.4992ZM108.706 20.1772L106.154 15.4394C106.106 15.3192 106.13 15.1989 106.226 15.1268C107.502 14.2129 108.056 12.6497 108.056 10.4131C108.056 6.46897 106.323 4.6412 102.037 4.6412H96.7654C96.3321 4.6412 96.0191 4.95385 96.0191 5.38674V20.7303C96.0191 21.1632 96.3321 21.4758 96.7654 21.4758H99.4616C99.8949 21.4758 100.208 21.1632 100.208 20.7303V16.9305C100.208 16.4976 100.521 16.185 100.954 16.185H101.917C101.989 16.185 102.062 16.2331 102.11 16.3052L104.613 21.1392C104.71 21.3556 104.926 21.4758 105.167 21.4758H107.911C108.658 21.4758 109.043 20.8025 108.706 20.1772ZM100.954 8.77772H102.182C103.337 8.77772 103.915 8.92201 103.915 10.4131C103.915 11.9042 103.337 12.0484 102.182 12.0484H100.954C100.521 12.0484 100.208 11.7358 100.208 11.3029V9.52325C100.208 9.09036 100.521 8.77772 100.954 8.77772ZM122.446 4.6412C122.928 4.6412 123.168 4.8817 123.168 5.36269V8.05623C123.168 8.51317 122.928 8.77772 122.446 8.77772H116.62C116.163 8.77772 115.898 9.01821 115.898 9.4992V10.2688C115.898 10.7257 116.163 10.9903 116.62 10.9903H120.352C120.833 10.9903 121.074 11.2308 121.074 11.7118V14.4053C121.074 14.8622 120.833 15.1268 120.352 15.1268H116.62C116.163 15.1268 115.898 15.3673 115.898 15.8483V16.6179C115.898 17.0748 116.163 17.3393 116.62 17.3393H122.446C122.928 17.3393 123.168 17.5798 123.168 18.0608V20.7544C123.168 21.2354 122.928 21.4758 122.446 21.4758H112.335C111.878 21.4758 111.613 21.2113 111.613 20.7544V5.36269C111.613 4.8817 111.878 4.6412 112.335 4.6412H122.446ZM137.291 21.4758C137.772 21.4758 138.013 21.1873 138.013 20.6582V10.4612C138.013 7.43094 137.532 4.20831 132.115 4.20831C126.699 4.20831 126.217 7.43094 126.217 10.4612V20.6582C126.217 21.1873 126.482 21.4758 126.939 21.4758H129.635C130.117 21.4758 130.358 21.2354 130.358 20.7544V18.6621C130.358 18.1811 130.623 17.9406 131.08 17.9406H133.15C133.632 17.9406 133.872 18.1811 133.872 18.6621V20.7544C133.872 21.2354 134.137 21.4758 134.595 21.4758H137.291ZM132.115 8.72962C133.704 8.72962 133.872 9.3068 133.872 10.4612V13.0585C133.872 13.5395 133.632 13.78 133.15 13.8041H131.08C130.623 13.8041 130.358 13.5395 130.358 13.0826V10.4612C130.358 9.3068 130.526 8.72962 132.115 8.72962ZM121.802 25.3622H117.867C117.492 25.381 117.305 25.5684 117.305 25.9431V37.9165C117.305 38.2725 117.511 38.4787 117.867 38.4787H122.495C126.018 38.4787 127.048 37.3544 127.048 35.0309C127.048 33.8692 126.486 32.9323 125.718 32.5763C126.486 31.7331 126.674 30.4964 126.674 29.8593C126.674 26.7863 125.324 25.3622 121.802 25.3622ZM122.102 31.1335H121.09C120.734 31.1335 120.528 30.9461 120.528 30.5713V29.1473C120.528 28.7725 120.734 28.5851 121.09 28.5851H122.102C123.001 28.5851 123.451 28.6976 123.451 29.8593C123.451 31.021 123.001 31.1335 122.102 31.1335ZM122.251 35.8179H121.071C120.715 35.8179 120.509 35.6305 120.509 35.2558V34.3938C120.509 34.0191 120.715 33.8317 121.071 33.8317H122.289C123.188 33.8317 123.601 33.9629 123.601 34.8435C123.601 35.7242 123.151 35.8179 122.251 35.8179ZM138.402 37.8416C138.402 38.2538 138.215 38.4787 137.84 38.4787H135.741C135.385 38.4787 135.179 38.2913 135.179 37.9165V36.2863C135.179 35.9116 134.992 35.7242 134.617 35.7242H133.006C132.65 35.7242 132.444 35.9116 132.444 36.2863V37.9165C132.444 38.2913 132.256 38.4787 131.881 38.4787H129.783C129.427 38.4787 129.221 38.2538 129.221 37.8416V29.8968C129.221 27.5358 129.595 25.025 133.811 25.025C138.027 25.025 138.402 27.5358 138.402 29.8968V37.8416ZM135.179 29.8968C135.179 28.9974 135.048 28.5477 133.811 28.5477C132.575 28.5477 132.444 28.9974 132.444 29.8968V31.9392C132.444 32.2952 132.65 32.5013 133.006 32.5013H134.617C134.992 32.4826 135.179 32.2952 135.179 31.9205V29.8968ZM151.089 37.4668L149.103 33.7755C149.065 33.6818 149.084 33.5881 149.159 33.5319C150.152 32.8199 150.583 31.6019 150.583 29.8593C150.583 26.7863 149.234 25.3622 145.899 25.3622H141.795C141.458 25.3622 141.214 25.6058 141.214 25.9431V37.8978C141.214 38.2351 141.458 38.4787 141.795 38.4787H143.894C144.231 38.4787 144.475 38.2351 144.475 37.8978V34.9372C144.475 34.5999 144.718 34.3564 145.056 34.3564H145.805C145.861 34.3564 145.918 34.3938 145.955 34.45L147.904 38.2163C147.979 38.385 148.147 38.4787 148.335 38.4787H150.471C151.052 38.4787 151.351 37.954 151.089 37.4668ZM145.056 28.5851H146.011C146.911 28.5851 147.36 28.6976 147.36 29.8593C147.36 31.021 146.911 31.1335 146.011 31.1335H145.056C144.718 31.1335 144.475 30.8899 144.475 30.5526V29.166C144.475 28.8287 144.718 28.5851 145.056 28.5851Z" fill="white"/>
<path d="M11.6499 25.4116H1.2937C0.57906 25.4116 0 25.99 0 26.7035V27.1023C0 27.8158 0.579314 28.394 1.2937 28.394H2.322C3.37663 28.394 4.23158 29.2489 4.23158 30.3035V31.4663C4.23158 31.8787 4.56594 32.2131 4.9784 32.2131V32.2131C5.39086 32.2131 5.72522 32.5475 5.72522 32.9599V43.8957C5.72522 44.8092 4.98468 45.5497 4.07116 45.5497H3.13455C2.73832 45.5497 2.4171 45.8709 2.4171 46.2672V46.2672C2.4171 46.6634 2.73832 46.9846 3.13455 46.9846H9.80903C10.2053 46.9846 10.5265 46.6634 10.5265 46.2672V46.2672C10.5265 45.8709 10.2053 45.5497 9.80904 45.5497H8.87255C7.95911 45.5497 7.21862 44.8092 7.21862 43.8958V32.9599C7.21862 32.5475 7.55298 32.2131 7.96544 32.2131V32.2131C8.3779 32.2131 8.71226 31.8787 8.71226 31.4663V30.3035C8.71226 29.2489 9.56721 28.394 10.6218 28.394H11.6501C12.3648 28.394 12.9438 27.8155 12.9438 27.1023V26.7035C12.9436 25.99 12.3645 25.4116 11.6499 25.4116Z" fill="white"/>
</svg>
